M48
; DRILL file {KiCad (6.0.4)} date Sun Apr 10 17:08:34 2022
; FORMAT={-:-/ absolute / inch / decimal}
; #@! TF.CreationDate,2022-04-10T17:08:34-04:00
; #@! TF.GenerationSoftware,Kicad,Pcbnew,(6.0.4)
; #@! TF.FileFunction,Plated,1,2,PTH
FMAT,2
INCH
; #@! TA.AperFunction,Plated,PTH,ComponentDrill
T1C0.0079
; #@! TA.AperFunction,Plated,PTH,ViaDrill
T2C0.0100
; #@! TA.AperFunction,Plated,PTH,ComponentDrill
T3C0.0394
; #@! TA.AperFunction,Plated,PTH,ComponentDrill
T4C0.0433
; #@! TA.AperFunction,Plated,PTH,ComponentDrill
T5C0.0787
%
G90
G05
T1
X5.8584Y-3.4457
X5.8918Y-3.4123
X5.8918Y-3.4791
X5.9252Y-3.3789
X5.9252Y-3.4457
X5.9252Y-3.5125
X5.9586Y-3.4123
X5.9586Y-3.4791
X5.992Y-3.4457
T2
X5.1391Y-2.7844
X5.14Y-2.8976
X5.1794Y-2.8976
X5.1804Y-2.7972
X5.3005Y-2.6929
X5.3005Y-2.747
X5.3192Y-2.9547
X5.4511Y-2.8268
X5.452Y-2.6919
X5.452Y-2.7451
X5.4646Y-3.3661
X5.4803Y-3.4291
X5.5Y-3.2913
X5.5219Y-2.8858
X5.5433Y-3.4961
X5.5574Y-2.9409
X5.5652Y-2.8976
X5.583Y-2.874
X5.5908Y-2.9665
X5.5967Y-2.9409
X5.5984Y-3.5433
X5.6085Y-2.6919
X5.6085Y-2.7451
X5.6204Y-2.8976
X5.6417Y-3.1457
X5.6637Y-3.128
X5.7109Y-2.8002
X5.7109Y-2.8976
X5.7362Y-3.2441
X5.748Y-3.4252
X5.7513Y-2.8976
X5.7522Y-2.7943
X5.7638Y-3.2205
X5.7831Y-3.4219
X5.829Y-3.3543
X5.8566Y-3.3583
X5.8583Y-3.3071
X5.8937Y-3.2756
X5.9078Y-3.8307
X5.9215Y-3.3031
X5.9331Y-2.9213
X5.9629Y-3.8307
X5.9961Y-2.8583
X6.051Y-3.3995
X6.0551Y-3.0748
X6.063Y-3.4412
X6.1046Y-3.1043
X6.1125Y-3.4488
X6.1811Y-3.0394
X6.2087Y-3.4449
X6.2598Y-3.5276
X6.2818Y-3.5079
X6.4764Y-3.0669
X6.6755Y-4.1693
X6.6755Y-4.2126
T3
X5.0252Y-4.0049
X5.0252Y-4.1049
X5.0252Y-4.3549
X5.0252Y-4.4549
X5.1252Y-4.0049
X5.1252Y-4.1049
X5.1252Y-4.3549
X5.1252Y-4.4549
X5.2252Y-4.0049
X5.2252Y-4.1049
X5.2252Y-4.3549
X5.2252Y-4.4549
X5.248Y-3.5551
X5.3252Y-4.0049
X5.3252Y-4.1049
X5.3252Y-4.3549
X5.3252Y-4.4549
X5.4252Y-4.0049
X5.4252Y-4.1049
X5.4252Y-4.3549
X5.4252Y-4.4549
X5.5252Y-4.0049
X5.5252Y-4.1049
X5.5252Y-4.3549
X5.5252Y-4.4549
X5.6252Y-4.0049
X5.6252Y-4.1049
X5.6252Y-4.3549
X5.6252Y-4.4549
X5.7252Y-4.0049
X5.7252Y-4.1049
X5.7252Y-4.3549
X5.7252Y-4.4549
X5.8252Y-4.0049
X5.8252Y-4.1049
X5.8252Y-4.3549
X5.8252Y-4.4549
X5.8701Y-3.0079
X5.9252Y-4.0049
X5.9252Y-4.1049
X5.9252Y-4.3549
X5.9252Y-4.4549
X6.0252Y-4.0049
X6.0252Y-4.1049
X6.0252Y-4.3549
X6.0252Y-4.4549
X6.1252Y-4.0049
X6.1252Y-4.1049
X6.1252Y-4.3549
X6.1252Y-4.4549
X6.2252Y-4.0049
X6.2252Y-4.1049
X6.2252Y-4.3549
X6.2252Y-4.4549
X6.3252Y-4.0049
X6.3252Y-4.1049
X6.3252Y-4.3549
X6.3252Y-4.4549
X6.4252Y-4.0049
X6.4252Y-4.1049
X6.4252Y-4.3549
X6.4252Y-4.4549
X6.5062Y-3.6437
X6.5252Y-4.0049
X6.5252Y-4.1049
X6.5252Y-4.3549
X6.5252Y-4.4549
X6.6252Y-4.0049
X6.6252Y-4.1049
X6.6252Y-4.3549
X6.6252Y-4.4549
X6.6299Y-3.3071
X6.7252Y-4.0049
X6.7252Y-4.1049
X6.7252Y-4.3549
X6.7252Y-4.4549
X6.8252Y-4.0049
X6.8252Y-4.1049
X6.8252Y-4.3549
X6.8252Y-4.4549
X6.9252Y-4.0049
X6.9252Y-4.1049
X6.9252Y-4.3549
X6.9252Y-4.4549
T4
X6.7157Y-3.4798
X6.841Y-3.3545
X6.8967Y-3.6607
X7.0219Y-3.5354
T5
X5.2047Y-2.7234
X5.7087Y-2.7234
T0
M30
