%TF.GenerationSoftware,KiCad,Pcbnew,(6.0.4)*%
%TF.CreationDate,2022-04-10T17:23:06-04:00*%
%TF.ProjectId,ftdi601_breakout,66746469-3630-4315-9f62-7265616b6f75,rev?*%
%TF.SameCoordinates,Original*%
%TF.FileFunction,Legend,Top*%
%TF.FilePolarity,Positive*%
%FSLAX46Y46*%
G04 Gerber Fmt 4.6, Leading zero omitted, Abs format (unit mm)*
G04 Created by KiCad (PCBNEW (6.0.4)) date 2022-04-10 17:23:06*
%MOMM*%
%LPD*%
G01*
G04 APERTURE LIST*
%ADD10C,0.300000*%
%ADD11C,0.400000*%
%ADD12C,0.150000*%
%ADD13C,0.100000*%
%ADD14C,0.120000*%
G04 APERTURE END LIST*
D10*
X136414177Y-74378571D02*
X137271320Y-74378571D01*
X136842749Y-75878571D02*
X136842749Y-74378571D01*
X137628463Y-74378571D02*
X138628463Y-75878571D01*
X138628463Y-74378571D02*
X137628463Y-75878571D01*
D11*
X130766558Y-96757142D02*
X130099892Y-96757142D01*
X130099892Y-97804761D02*
X130099892Y-95804761D01*
X131052273Y-95804761D01*
X131528463Y-95804761D02*
X132671320Y-95804761D01*
X132099892Y-97804761D02*
X132099892Y-95804761D01*
X134195130Y-95804761D02*
X133814177Y-95804761D01*
X133623701Y-95900000D01*
X133528463Y-95995238D01*
X133337987Y-96280952D01*
X133242749Y-96661904D01*
X133242749Y-97423809D01*
X133337987Y-97614285D01*
X133433225Y-97709523D01*
X133623701Y-97804761D01*
X134004654Y-97804761D01*
X134195130Y-97709523D01*
X134290368Y-97614285D01*
X134385606Y-97423809D01*
X134385606Y-96947619D01*
X134290368Y-96757142D01*
X134195130Y-96661904D01*
X134004654Y-96566666D01*
X133623701Y-96566666D01*
X133433225Y-96661904D01*
X133337987Y-96757142D01*
X133242749Y-96947619D01*
X135623701Y-95804761D02*
X135814177Y-95804761D01*
X136004654Y-95900000D01*
X136099892Y-95995238D01*
X136195130Y-96185714D01*
X136290368Y-96566666D01*
X136290368Y-97042857D01*
X136195130Y-97423809D01*
X136099892Y-97614285D01*
X136004654Y-97709523D01*
X135814177Y-97804761D01*
X135623701Y-97804761D01*
X135433225Y-97709523D01*
X135337987Y-97614285D01*
X135242749Y-97423809D01*
X135147511Y-97042857D01*
X135147511Y-96566666D01*
X135242749Y-96185714D01*
X135337987Y-95995238D01*
X135433225Y-95900000D01*
X135623701Y-95804761D01*
X138195130Y-97804761D02*
X137052273Y-97804761D01*
X137623701Y-97804761D02*
X137623701Y-95804761D01*
X137433225Y-96090476D01*
X137242749Y-96280952D01*
X137052273Y-96376190D01*
X140576082Y-96757142D02*
X141242749Y-96757142D01*
X141528463Y-97804761D02*
X140576082Y-97804761D01*
X140576082Y-95804761D01*
X141528463Y-95804761D01*
X142195130Y-96471428D02*
X142671320Y-97804761D01*
X143147511Y-96471428D01*
X144766558Y-97804761D02*
X144766558Y-96757142D01*
X144671320Y-96566666D01*
X144480844Y-96471428D01*
X144099892Y-96471428D01*
X143909415Y-96566666D01*
X144766558Y-97709523D02*
X144576082Y-97804761D01*
X144099892Y-97804761D01*
X143909415Y-97709523D01*
X143814177Y-97519047D01*
X143814177Y-97328571D01*
X143909415Y-97138095D01*
X144099892Y-97042857D01*
X144576082Y-97042857D01*
X144766558Y-96947619D01*
X146004654Y-97804761D02*
X145814177Y-97709523D01*
X145718939Y-97519047D01*
X145718939Y-95804761D01*
D10*
X149135606Y-108335714D02*
X149064177Y-108407142D01*
X148849892Y-108478571D01*
X148707035Y-108478571D01*
X148492749Y-108407142D01*
X148349892Y-108264285D01*
X148278463Y-108121428D01*
X148207035Y-107835714D01*
X148207035Y-107621428D01*
X148278463Y-107335714D01*
X148349892Y-107192857D01*
X148492749Y-107050000D01*
X148707035Y-106978571D01*
X148849892Y-106978571D01*
X149064177Y-107050000D01*
X149135606Y-107121428D01*
X150492749Y-108478571D02*
X149778463Y-108478571D01*
X149778463Y-106978571D01*
X150992749Y-108478571D02*
X150992749Y-106978571D01*
X151849892Y-108478571D02*
X151207035Y-107621428D01*
X151849892Y-106978571D02*
X150992749Y-107835714D01*
X153064177Y-107335714D02*
X153064177Y-108478571D01*
X153349892Y-108192857D02*
X153064177Y-108478571D01*
X152778463Y-108192857D01*
X142857035Y-74521428D02*
X142928463Y-74450000D01*
X143071320Y-74378571D01*
X143428463Y-74378571D01*
X143571320Y-74450000D01*
X143642749Y-74521428D01*
X143714177Y-74664285D01*
X143714177Y-74807142D01*
X143642749Y-75021428D01*
X142785606Y-75878571D01*
X143714177Y-75878571D01*
X144357035Y-75735714D02*
X144428463Y-75807142D01*
X144357035Y-75878571D01*
X144285606Y-75807142D01*
X144357035Y-75735714D01*
X144357035Y-75878571D01*
X145357035Y-74378571D02*
X145499892Y-74378571D01*
X145642749Y-74450000D01*
X145714177Y-74521428D01*
X145785606Y-74664285D01*
X145857035Y-74950000D01*
X145857035Y-75307142D01*
X145785606Y-75592857D01*
X145714177Y-75735714D01*
X145642749Y-75807142D01*
X145499892Y-75878571D01*
X145357035Y-75878571D01*
X145214177Y-75807142D01*
X145142749Y-75735714D01*
X145071320Y-75592857D01*
X144999892Y-75307142D01*
X144999892Y-74950000D01*
X145071320Y-74664285D01*
X145142749Y-74521428D01*
X145214177Y-74450000D01*
X145357035Y-74378571D01*
X132507035Y-75878571D02*
X132007035Y-75164285D01*
X131649892Y-75878571D02*
X131649892Y-74378571D01*
X132221320Y-74378571D01*
X132364177Y-74450000D01*
X132435606Y-74521428D01*
X132507035Y-74664285D01*
X132507035Y-74878571D01*
X132435606Y-75021428D01*
X132364177Y-75092857D01*
X132221320Y-75164285D01*
X131649892Y-75164285D01*
X133007035Y-74378571D02*
X134007035Y-75878571D01*
X134007035Y-74378571D02*
X133007035Y-75878571D01*
D12*
%TO.C,J1*%
X130023701Y-71652380D02*
X130023701Y-72366666D01*
X129976082Y-72509523D01*
X129880844Y-72604761D01*
X129737987Y-72652380D01*
X129642749Y-72652380D01*
X131023701Y-72652380D02*
X130452273Y-72652380D01*
X130737987Y-72652380D02*
X130737987Y-71652380D01*
X130642749Y-71795238D01*
X130547511Y-71890476D01*
X130452273Y-71938095D01*
%TO.C,C2*%
X141791722Y-75870389D02*
X141791722Y-75937732D01*
X141724378Y-76072419D01*
X141657035Y-76139763D01*
X141522347Y-76207106D01*
X141387660Y-76207106D01*
X141286645Y-76173435D01*
X141118286Y-76072419D01*
X141017271Y-75971404D01*
X140916256Y-75803045D01*
X140882584Y-75702030D01*
X140882584Y-75567343D01*
X140949928Y-75432656D01*
X141017271Y-75365312D01*
X141151958Y-75297969D01*
X141219302Y-75297969D01*
X141488676Y-75028595D02*
X141488676Y-74961251D01*
X141522347Y-74860236D01*
X141690706Y-74691877D01*
X141791722Y-74658206D01*
X141859065Y-74658206D01*
X141960080Y-74691877D01*
X142027424Y-74759221D01*
X142094767Y-74893908D01*
X142094767Y-75702030D01*
X142532500Y-75264297D01*
%TO.C,C11*%
X160997969Y-86707106D02*
X160997969Y-86774450D01*
X160930625Y-86909137D01*
X160863282Y-86976480D01*
X160728595Y-87043824D01*
X160593908Y-87043824D01*
X160492893Y-87010152D01*
X160324534Y-86909137D01*
X160223519Y-86808122D01*
X160122503Y-86639763D01*
X160088832Y-86538748D01*
X160088832Y-86404061D01*
X160156175Y-86269374D01*
X160223519Y-86202030D01*
X160358206Y-86134687D01*
X160425549Y-86134687D01*
X161738748Y-86101015D02*
X161334687Y-86505076D01*
X161536717Y-86303045D02*
X160829610Y-85595938D01*
X160863282Y-85764297D01*
X160863282Y-85898984D01*
X160829610Y-86000000D01*
X162412183Y-85427580D02*
X162008122Y-85831641D01*
X162210152Y-85629610D02*
X161503045Y-84922503D01*
X161536717Y-85090862D01*
X161536717Y-85225549D01*
X161503045Y-85326564D01*
%TO.C,C10*%
X168864177Y-108837142D02*
X168816558Y-108884761D01*
X168673701Y-108932380D01*
X168578463Y-108932380D01*
X168435606Y-108884761D01*
X168340368Y-108789523D01*
X168292749Y-108694285D01*
X168245130Y-108503809D01*
X168245130Y-108360952D01*
X168292749Y-108170476D01*
X168340368Y-108075238D01*
X168435606Y-107980000D01*
X168578463Y-107932380D01*
X168673701Y-107932380D01*
X168816558Y-107980000D01*
X168864177Y-108027619D01*
X169816558Y-108932380D02*
X169245130Y-108932380D01*
X169530844Y-108932380D02*
X169530844Y-107932380D01*
X169435606Y-108075238D01*
X169340368Y-108170476D01*
X169245130Y-108218095D01*
X170435606Y-107932380D02*
X170530844Y-107932380D01*
X170626082Y-107980000D01*
X170673701Y-108027619D01*
X170721320Y-108122857D01*
X170768939Y-108313333D01*
X170768939Y-108551428D01*
X170721320Y-108741904D01*
X170673701Y-108837142D01*
X170626082Y-108884761D01*
X170530844Y-108932380D01*
X170435606Y-108932380D01*
X170340368Y-108884761D01*
X170292749Y-108837142D01*
X170245130Y-108741904D01*
X170197511Y-108551428D01*
X170197511Y-108313333D01*
X170245130Y-108122857D01*
X170292749Y-108027619D01*
X170340368Y-107980000D01*
X170435606Y-107932380D01*
%TO.C,C8*%
X149434177Y-97416666D02*
X149481796Y-97464285D01*
X149529415Y-97607142D01*
X149529415Y-97702380D01*
X149481796Y-97845238D01*
X149386558Y-97940476D01*
X149291320Y-97988095D01*
X149100844Y-98035714D01*
X148957987Y-98035714D01*
X148767511Y-97988095D01*
X148672273Y-97940476D01*
X148577035Y-97845238D01*
X148529415Y-97702380D01*
X148529415Y-97607142D01*
X148577035Y-97464285D01*
X148624654Y-97416666D01*
X148957987Y-96845238D02*
X148910368Y-96940476D01*
X148862749Y-96988095D01*
X148767511Y-97035714D01*
X148719892Y-97035714D01*
X148624654Y-96988095D01*
X148577035Y-96940476D01*
X148529415Y-96845238D01*
X148529415Y-96654761D01*
X148577035Y-96559523D01*
X148624654Y-96511904D01*
X148719892Y-96464285D01*
X148767511Y-96464285D01*
X148862749Y-96511904D01*
X148910368Y-96559523D01*
X148957987Y-96654761D01*
X148957987Y-96845238D01*
X149005606Y-96940476D01*
X149053225Y-96988095D01*
X149148463Y-97035714D01*
X149338939Y-97035714D01*
X149434177Y-96988095D01*
X149481796Y-96940476D01*
X149529415Y-96845238D01*
X149529415Y-96654761D01*
X149481796Y-96559523D01*
X149434177Y-96511904D01*
X149338939Y-96464285D01*
X149148463Y-96464285D01*
X149053225Y-96511904D01*
X149005606Y-96559523D01*
X148957987Y-96654761D01*
%TO.C,J3*%
X177682380Y-103328333D02*
X178396666Y-103328333D01*
X178539523Y-103375952D01*
X178634761Y-103471190D01*
X178682380Y-103614047D01*
X178682380Y-103709285D01*
X177682380Y-102947380D02*
X177682380Y-102328333D01*
X178063333Y-102661666D01*
X178063333Y-102518809D01*
X178110952Y-102423571D01*
X178158571Y-102375952D01*
X178253809Y-102328333D01*
X178491904Y-102328333D01*
X178587142Y-102375952D01*
X178634761Y-102423571D01*
X178682380Y-102518809D01*
X178682380Y-102804523D01*
X178634761Y-102899761D01*
X178587142Y-102947380D01*
%TO.C,C6*%
X150434687Y-72570389D02*
X150434687Y-72637732D01*
X150367343Y-72772419D01*
X150300000Y-72839763D01*
X150165312Y-72907106D01*
X150030625Y-72907106D01*
X149929610Y-72873435D01*
X149761251Y-72772419D01*
X149660236Y-72671404D01*
X149559221Y-72503045D01*
X149525549Y-72402030D01*
X149525549Y-72267343D01*
X149592893Y-72132656D01*
X149660236Y-72065312D01*
X149794923Y-71997969D01*
X149862267Y-71997969D01*
X150401015Y-71324534D02*
X150266328Y-71459221D01*
X150232656Y-71560236D01*
X150232656Y-71627580D01*
X150266328Y-71795938D01*
X150367343Y-71964297D01*
X150636717Y-72233671D01*
X150737732Y-72267343D01*
X150805076Y-72267343D01*
X150906091Y-72233671D01*
X151040778Y-72098984D01*
X151074450Y-71997969D01*
X151074450Y-71930625D01*
X151040778Y-71829610D01*
X150872419Y-71661251D01*
X150771404Y-71627580D01*
X150704061Y-71627580D01*
X150603045Y-71661251D01*
X150468358Y-71795938D01*
X150434687Y-71896954D01*
X150434687Y-71964297D01*
X150468358Y-72065312D01*
%TO.C,C13*%
X142755004Y-91207106D02*
X142755004Y-91274450D01*
X142687660Y-91409137D01*
X142620317Y-91476480D01*
X142485630Y-91543824D01*
X142350943Y-91543824D01*
X142249928Y-91510152D01*
X142081569Y-91409137D01*
X141980554Y-91308122D01*
X141879538Y-91139763D01*
X141845867Y-91038748D01*
X141845867Y-90904061D01*
X141913210Y-90769374D01*
X141980554Y-90702030D01*
X142115241Y-90634687D01*
X142182584Y-90634687D01*
X143495783Y-90601015D02*
X143091722Y-91005076D01*
X143293752Y-90803045D02*
X142586645Y-90095938D01*
X142620317Y-90264297D01*
X142620317Y-90398984D01*
X142586645Y-90500000D01*
X143024378Y-89658206D02*
X143462111Y-89220473D01*
X143495783Y-89725549D01*
X143596798Y-89624534D01*
X143697813Y-89590862D01*
X143765157Y-89590862D01*
X143866172Y-89624534D01*
X144034531Y-89792893D01*
X144068202Y-89893908D01*
X144068202Y-89961251D01*
X144034531Y-90062267D01*
X143832500Y-90264297D01*
X143731485Y-90297969D01*
X143664141Y-90297969D01*
%TO.C,GND*%
X167638095Y-81170000D02*
X167542857Y-81122380D01*
X167400000Y-81122380D01*
X167257142Y-81170000D01*
X167161904Y-81265238D01*
X167114285Y-81360476D01*
X167066666Y-81550952D01*
X167066666Y-81693809D01*
X167114285Y-81884285D01*
X167161904Y-81979523D01*
X167257142Y-82074761D01*
X167400000Y-82122380D01*
X167495238Y-82122380D01*
X167638095Y-82074761D01*
X167685714Y-82027142D01*
X167685714Y-81693809D01*
X167495238Y-81693809D01*
X168114285Y-82122380D02*
X168114285Y-81122380D01*
X168685714Y-82122380D01*
X168685714Y-81122380D01*
X169161904Y-82122380D02*
X169161904Y-81122380D01*
X169400000Y-81122380D01*
X169542857Y-81170000D01*
X169638095Y-81265238D01*
X169685714Y-81360476D01*
X169733333Y-81550952D01*
X169733333Y-81693809D01*
X169685714Y-81884285D01*
X169638095Y-81979523D01*
X169542857Y-82074761D01*
X169400000Y-82122380D01*
X169161904Y-82122380D01*
D13*
%TO.C,GPIO0*%
X155466558Y-81800000D02*
X155428463Y-81780952D01*
X155371320Y-81780952D01*
X155314177Y-81800000D01*
X155276082Y-81838095D01*
X155257035Y-81876190D01*
X155237987Y-81952380D01*
X155237987Y-82009523D01*
X155257035Y-82085714D01*
X155276082Y-82123809D01*
X155314177Y-82161904D01*
X155371320Y-82180952D01*
X155409415Y-82180952D01*
X155466558Y-82161904D01*
X155485606Y-82142857D01*
X155485606Y-82009523D01*
X155409415Y-82009523D01*
X155657035Y-82180952D02*
X155657035Y-81780952D01*
X155809415Y-81780952D01*
X155847511Y-81800000D01*
X155866558Y-81819047D01*
X155885606Y-81857142D01*
X155885606Y-81914285D01*
X155866558Y-81952380D01*
X155847511Y-81971428D01*
X155809415Y-81990476D01*
X155657035Y-81990476D01*
X156057035Y-82180952D02*
X156057035Y-81780952D01*
X156323701Y-81780952D02*
X156399892Y-81780952D01*
X156437987Y-81800000D01*
X156476082Y-81838095D01*
X156495130Y-81914285D01*
X156495130Y-82047619D01*
X156476082Y-82123809D01*
X156437987Y-82161904D01*
X156399892Y-82180952D01*
X156323701Y-82180952D01*
X156285606Y-82161904D01*
X156247511Y-82123809D01*
X156228463Y-82047619D01*
X156228463Y-81914285D01*
X156247511Y-81838095D01*
X156285606Y-81800000D01*
X156323701Y-81780952D01*
X156742749Y-81780952D02*
X156780844Y-81780952D01*
X156818939Y-81800000D01*
X156837987Y-81819047D01*
X156857035Y-81857142D01*
X156876082Y-81933333D01*
X156876082Y-82028571D01*
X156857035Y-82104761D01*
X156837987Y-82142857D01*
X156818939Y-82161904D01*
X156780844Y-82180952D01*
X156742749Y-82180952D01*
X156704654Y-82161904D01*
X156685606Y-82142857D01*
X156666558Y-82104761D01*
X156647511Y-82028571D01*
X156647511Y-81933333D01*
X156666558Y-81857142D01*
X156685606Y-81819047D01*
X156704654Y-81800000D01*
X156742749Y-81780952D01*
D12*
%TO.C,R2*%
X158865368Y-85302380D02*
X158532035Y-84826190D01*
X158293939Y-85302380D02*
X158293939Y-84302380D01*
X158674892Y-84302380D01*
X158770130Y-84350000D01*
X158817749Y-84397619D01*
X158865368Y-84492857D01*
X158865368Y-84635714D01*
X158817749Y-84730952D01*
X158770130Y-84778571D01*
X158674892Y-84826190D01*
X158293939Y-84826190D01*
X159246320Y-84397619D02*
X159293939Y-84350000D01*
X159389177Y-84302380D01*
X159627273Y-84302380D01*
X159722511Y-84350000D01*
X159770130Y-84397619D01*
X159817749Y-84492857D01*
X159817749Y-84588095D01*
X159770130Y-84730952D01*
X159198701Y-85302380D01*
X159817749Y-85302380D01*
%TO.C,C5*%
X157434687Y-79370389D02*
X157434687Y-79437732D01*
X157367343Y-79572419D01*
X157300000Y-79639763D01*
X157165312Y-79707106D01*
X157030625Y-79707106D01*
X156929610Y-79673435D01*
X156761251Y-79572419D01*
X156660236Y-79471404D01*
X156559221Y-79303045D01*
X156525549Y-79202030D01*
X156525549Y-79067343D01*
X156592893Y-78932656D01*
X156660236Y-78865312D01*
X156794923Y-78797969D01*
X156862267Y-78797969D01*
X157434687Y-78090862D02*
X157097969Y-78427580D01*
X157401015Y-78797969D01*
X157401015Y-78730625D01*
X157434687Y-78629610D01*
X157603045Y-78461251D01*
X157704061Y-78427580D01*
X157771404Y-78427580D01*
X157872419Y-78461251D01*
X158040778Y-78629610D01*
X158074450Y-78730625D01*
X158074450Y-78797969D01*
X158040778Y-78898984D01*
X157872419Y-79067343D01*
X157771404Y-79101015D01*
X157704061Y-79101015D01*
%TO.C,C4*%
X165534687Y-77470389D02*
X165534687Y-77537732D01*
X165467343Y-77672419D01*
X165400000Y-77739763D01*
X165265312Y-77807106D01*
X165130625Y-77807106D01*
X165029610Y-77773435D01*
X164861251Y-77672419D01*
X164760236Y-77571404D01*
X164659221Y-77403045D01*
X164625549Y-77302030D01*
X164625549Y-77167343D01*
X164692893Y-77032656D01*
X164760236Y-76965312D01*
X164894923Y-76897969D01*
X164962267Y-76897969D01*
X165736717Y-76460236D02*
X166208122Y-76931641D01*
X165298984Y-76359221D02*
X165635702Y-77032656D01*
X166073435Y-76594923D01*
%TO.C,C14*%
X162697969Y-88107106D02*
X162697969Y-88174450D01*
X162630625Y-88309137D01*
X162563282Y-88376480D01*
X162428595Y-88443824D01*
X162293908Y-88443824D01*
X162192893Y-88410152D01*
X162024534Y-88309137D01*
X161923519Y-88208122D01*
X161822503Y-88039763D01*
X161788832Y-87938748D01*
X161788832Y-87804061D01*
X161856175Y-87669374D01*
X161923519Y-87602030D01*
X162058206Y-87534687D01*
X162125549Y-87534687D01*
X163438748Y-87501015D02*
X163034687Y-87905076D01*
X163236717Y-87703045D02*
X162529610Y-86995938D01*
X162563282Y-87164297D01*
X162563282Y-87298984D01*
X162529610Y-87400000D01*
X163573435Y-86423519D02*
X164044839Y-86894923D01*
X163135702Y-86322503D02*
X163472419Y-86995938D01*
X163910152Y-86558206D01*
%TO.C,GND*%
X148338095Y-73570000D02*
X148242857Y-73522380D01*
X148100000Y-73522380D01*
X147957142Y-73570000D01*
X147861904Y-73665238D01*
X147814285Y-73760476D01*
X147766666Y-73950952D01*
X147766666Y-74093809D01*
X147814285Y-74284285D01*
X147861904Y-74379523D01*
X147957142Y-74474761D01*
X148100000Y-74522380D01*
X148195238Y-74522380D01*
X148338095Y-74474761D01*
X148385714Y-74427142D01*
X148385714Y-74093809D01*
X148195238Y-74093809D01*
X148814285Y-74522380D02*
X148814285Y-73522380D01*
X149385714Y-74522380D01*
X149385714Y-73522380D01*
X149861904Y-74522380D02*
X149861904Y-73522380D01*
X150100000Y-73522380D01*
X150242857Y-73570000D01*
X150338095Y-73665238D01*
X150385714Y-73760476D01*
X150433333Y-73950952D01*
X150433333Y-74093809D01*
X150385714Y-74284285D01*
X150338095Y-74379523D01*
X150242857Y-74474761D01*
X150100000Y-74522380D01*
X149861904Y-74522380D01*
%TO.C,R3*%
X151302030Y-78637731D02*
X150729610Y-78536716D01*
X150897969Y-79041792D02*
X150190862Y-78334686D01*
X150460236Y-78065311D01*
X150561251Y-78031640D01*
X150628595Y-78031640D01*
X150729610Y-78065311D01*
X150830625Y-78166327D01*
X150864297Y-78267342D01*
X150864297Y-78334686D01*
X150830625Y-78435701D01*
X150561251Y-78705075D01*
X150830625Y-77694922D02*
X151268358Y-77257189D01*
X151302030Y-77762266D01*
X151403045Y-77661250D01*
X151504061Y-77627579D01*
X151571404Y-77627579D01*
X151672419Y-77661250D01*
X151840778Y-77829609D01*
X151874450Y-77930624D01*
X151874450Y-77997968D01*
X151840778Y-78098983D01*
X151638748Y-78301014D01*
X151537732Y-78334686D01*
X151470389Y-78334686D01*
%TO.C,RESET*%
X177249928Y-95346870D02*
X176677508Y-95245854D01*
X176845867Y-95750931D02*
X176138760Y-95043824D01*
X176408134Y-94774450D01*
X176509149Y-94740778D01*
X176576493Y-94740778D01*
X176677508Y-94774450D01*
X176778523Y-94875465D01*
X176812195Y-94976480D01*
X176812195Y-95043824D01*
X176778523Y-95144839D01*
X176509149Y-95414213D01*
X177182584Y-94673435D02*
X177418286Y-94437732D01*
X177889691Y-94707106D02*
X177552973Y-95043824D01*
X176845867Y-94336717D01*
X177182584Y-94000000D01*
X178125393Y-94404061D02*
X178260080Y-94336717D01*
X178428439Y-94168358D01*
X178462111Y-94067343D01*
X178462111Y-94000000D01*
X178428439Y-93898984D01*
X178361096Y-93831641D01*
X178260080Y-93797969D01*
X178192737Y-93797969D01*
X178091722Y-93831641D01*
X177923363Y-93932656D01*
X177822347Y-93966328D01*
X177755004Y-93966328D01*
X177653989Y-93932656D01*
X177586645Y-93865312D01*
X177552973Y-93764297D01*
X177552973Y-93696954D01*
X177586645Y-93595938D01*
X177755004Y-93427580D01*
X177889691Y-93360236D01*
X178495783Y-93360236D02*
X178731485Y-93124534D01*
X179202889Y-93393908D02*
X178866172Y-93730625D01*
X178159065Y-93023519D01*
X178495783Y-92686801D01*
X178697813Y-92484771D02*
X179101874Y-92080710D01*
X179606950Y-92989847D02*
X178899844Y-92282740D01*
%TO.C,C7*%
X138486645Y-87934687D02*
X138419302Y-87934687D01*
X138284615Y-87867343D01*
X138217271Y-87800000D01*
X138149928Y-87665312D01*
X138149928Y-87530625D01*
X138183599Y-87429610D01*
X138284615Y-87261251D01*
X138385630Y-87160236D01*
X138553989Y-87059221D01*
X138655004Y-87025549D01*
X138789691Y-87025549D01*
X138924378Y-87092893D01*
X138991722Y-87160236D01*
X139059065Y-87294923D01*
X139059065Y-87362267D01*
X139362111Y-87530625D02*
X139833515Y-88002030D01*
X138823363Y-88406091D01*
%TO.C,J4*%
X177682380Y-112218333D02*
X178396666Y-112218333D01*
X178539523Y-112265952D01*
X178634761Y-112361190D01*
X178682380Y-112504047D01*
X178682380Y-112599285D01*
X178015714Y-111313571D02*
X178682380Y-111313571D01*
X177634761Y-111551666D02*
X178349047Y-111789761D01*
X178349047Y-111170714D01*
%TO.C,Y1*%
X154909652Y-76363782D02*
X155246370Y-76027064D01*
X154774965Y-76969873D02*
X154909652Y-76363782D01*
X154303561Y-76498469D01*
X154404576Y-75185271D02*
X154808637Y-75589332D01*
X154606606Y-75387301D02*
X153899500Y-76094408D01*
X154067858Y-76060736D01*
X154202545Y-76060736D01*
X154303561Y-76094408D01*
%TO.C,C9*%
X146953424Y-81082624D02*
X146886081Y-81082624D01*
X146751394Y-81015280D01*
X146684050Y-80947937D01*
X146616707Y-80813249D01*
X146616707Y-80678562D01*
X146650378Y-80577547D01*
X146751394Y-80409188D01*
X146852409Y-80308173D01*
X147020768Y-80207158D01*
X147121783Y-80173486D01*
X147256470Y-80173486D01*
X147391157Y-80240830D01*
X147458501Y-80308173D01*
X147525844Y-80442860D01*
X147525844Y-80510204D01*
X147222798Y-81486685D02*
X147357485Y-81621372D01*
X147458501Y-81655043D01*
X147525844Y-81655043D01*
X147694203Y-81621372D01*
X147862562Y-81520356D01*
X148131936Y-81250982D01*
X148165607Y-81149967D01*
X148165607Y-81082624D01*
X148131936Y-80981608D01*
X147997249Y-80846921D01*
X147896233Y-80813249D01*
X147828890Y-80813249D01*
X147727875Y-80846921D01*
X147559516Y-81015280D01*
X147525844Y-81116295D01*
X147525844Y-81183639D01*
X147559516Y-81284654D01*
X147694203Y-81419341D01*
X147795218Y-81453013D01*
X147862562Y-81453013D01*
X147963577Y-81419341D01*
%TO.C,JP2*%
X159723701Y-107152380D02*
X159723701Y-107866666D01*
X159676082Y-108009523D01*
X159580844Y-108104761D01*
X159437987Y-108152380D01*
X159342749Y-108152380D01*
X160199892Y-108152380D02*
X160199892Y-107152380D01*
X160580844Y-107152380D01*
X160676082Y-107200000D01*
X160723701Y-107247619D01*
X160771320Y-107342857D01*
X160771320Y-107485714D01*
X160723701Y-107580952D01*
X160676082Y-107628571D01*
X160580844Y-107676190D01*
X160199892Y-107676190D01*
X161152273Y-107247619D02*
X161199892Y-107200000D01*
X161295130Y-107152380D01*
X161533225Y-107152380D01*
X161628463Y-107200000D01*
X161676082Y-107247619D01*
X161723701Y-107342857D01*
X161723701Y-107438095D01*
X161676082Y-107580952D01*
X161104654Y-108152380D01*
X161723701Y-108152380D01*
%TO.C,C1*%
X141786645Y-83834687D02*
X141719302Y-83834687D01*
X141584615Y-83767343D01*
X141517271Y-83700000D01*
X141449928Y-83565312D01*
X141449928Y-83430625D01*
X141483599Y-83329610D01*
X141584615Y-83161251D01*
X141685630Y-83060236D01*
X141853989Y-82959221D01*
X141955004Y-82925549D01*
X142089691Y-82925549D01*
X142224378Y-82992893D01*
X142291722Y-83060236D01*
X142359065Y-83194923D01*
X142359065Y-83262267D01*
X142392737Y-84575465D02*
X141988676Y-84171404D01*
X142190706Y-84373435D02*
X142897813Y-83666328D01*
X142729454Y-83700000D01*
X142594767Y-83700000D01*
X142493752Y-83666328D01*
%TO.C,U2*%
X153675245Y-91773021D02*
X154247665Y-92345441D01*
X154348680Y-92379113D01*
X154416024Y-92379113D01*
X154517039Y-92345441D01*
X154651726Y-92210754D01*
X154685398Y-92109739D01*
X154685398Y-92042395D01*
X154651726Y-91941380D01*
X154079306Y-91368960D01*
X154449696Y-91133258D02*
X154449696Y-91065915D01*
X154483367Y-90964899D01*
X154651726Y-90796541D01*
X154752741Y-90762869D01*
X154820085Y-90762869D01*
X154921100Y-90796541D01*
X154988444Y-90863884D01*
X155055787Y-90998571D01*
X155055787Y-91806693D01*
X155493520Y-91368960D01*
%TO.C,R1*%
X166902030Y-79437732D02*
X166329610Y-79336717D01*
X166497969Y-79841793D02*
X165790862Y-79134687D01*
X166060236Y-78865312D01*
X166161251Y-78831641D01*
X166228595Y-78831641D01*
X166329610Y-78865312D01*
X166430625Y-78966328D01*
X166464297Y-79067343D01*
X166464297Y-79134687D01*
X166430625Y-79235702D01*
X166161251Y-79505076D01*
X167575465Y-78764297D02*
X167171404Y-79168358D01*
X167373435Y-78966328D02*
X166666328Y-78259221D01*
X166700000Y-78427580D01*
X166700000Y-78562267D01*
X166666328Y-78663282D01*
%TO.C,C12*%
X141449928Y-80797969D02*
X141382584Y-80797969D01*
X141247897Y-80730625D01*
X141180554Y-80663282D01*
X141113210Y-80528595D01*
X141113210Y-80393908D01*
X141146882Y-80292893D01*
X141247897Y-80124534D01*
X141348912Y-80023519D01*
X141517271Y-79922503D01*
X141618286Y-79888832D01*
X141752973Y-79888832D01*
X141887660Y-79956175D01*
X141955004Y-80023519D01*
X142022347Y-80158206D01*
X142022347Y-80225549D01*
X142056019Y-81538748D02*
X141651958Y-81134687D01*
X141853989Y-81336717D02*
X142561096Y-80629610D01*
X142392737Y-80663282D01*
X142258050Y-80663282D01*
X142157035Y-80629610D01*
X142965157Y-81168358D02*
X143032500Y-81168358D01*
X143133515Y-81202030D01*
X143301874Y-81370389D01*
X143335546Y-81471404D01*
X143335546Y-81538748D01*
X143301874Y-81639763D01*
X143234531Y-81707106D01*
X143099844Y-81774450D01*
X142291722Y-81774450D01*
X142729454Y-82212183D01*
D13*
%TO.C,~{WAKEUP}*%
X157366558Y-81668000D02*
X157823701Y-81668000D01*
X157423701Y-81780952D02*
X157518939Y-82180952D01*
X157595130Y-81895238D01*
X157671320Y-82180952D01*
X157766558Y-81780952D01*
X157823701Y-81668000D02*
X158166558Y-81668000D01*
X157899892Y-82066666D02*
X158090368Y-82066666D01*
X157861796Y-82180952D02*
X157995130Y-81780952D01*
X158128463Y-82180952D01*
X158166558Y-81668000D02*
X158566558Y-81668000D01*
X158261796Y-82180952D02*
X158261796Y-81780952D01*
X158490368Y-82180952D02*
X158318939Y-81952380D01*
X158490368Y-81780952D02*
X158261796Y-82009523D01*
X158566558Y-81668000D02*
X158928463Y-81668000D01*
X158661796Y-81971428D02*
X158795130Y-81971428D01*
X158852273Y-82180952D02*
X158661796Y-82180952D01*
X158661796Y-81780952D01*
X158852273Y-81780952D01*
X158928463Y-81668000D02*
X159347511Y-81668000D01*
X159023701Y-81780952D02*
X159023701Y-82104761D01*
X159042749Y-82142857D01*
X159061796Y-82161904D01*
X159099892Y-82180952D01*
X159176082Y-82180952D01*
X159214177Y-82161904D01*
X159233225Y-82142857D01*
X159252273Y-82104761D01*
X159252273Y-81780952D01*
X159347511Y-81668000D02*
X159747511Y-81668000D01*
X159442749Y-82180952D02*
X159442749Y-81780952D01*
X159595130Y-81780952D01*
X159633225Y-81800000D01*
X159652273Y-81819047D01*
X159671320Y-81857142D01*
X159671320Y-81914285D01*
X159652273Y-81952380D01*
X159633225Y-81971428D01*
X159595130Y-81990476D01*
X159442749Y-81990476D01*
D12*
%TO.C,GND*%
X164495130Y-89720000D02*
X164399892Y-89672380D01*
X164257035Y-89672380D01*
X164114177Y-89720000D01*
X164018939Y-89815238D01*
X163971320Y-89910476D01*
X163923701Y-90100952D01*
X163923701Y-90243809D01*
X163971320Y-90434285D01*
X164018939Y-90529523D01*
X164114177Y-90624761D01*
X164257035Y-90672380D01*
X164352273Y-90672380D01*
X164495130Y-90624761D01*
X164542749Y-90577142D01*
X164542749Y-90243809D01*
X164352273Y-90243809D01*
X164971320Y-90672380D02*
X164971320Y-89672380D01*
X165542749Y-90672380D01*
X165542749Y-89672380D01*
X166018939Y-90672380D02*
X166018939Y-89672380D01*
X166257035Y-89672380D01*
X166399892Y-89720000D01*
X166495130Y-89815238D01*
X166542749Y-89910476D01*
X166590368Y-90100952D01*
X166590368Y-90243809D01*
X166542749Y-90434285D01*
X166495130Y-90529523D01*
X166399892Y-90624761D01*
X166257035Y-90672380D01*
X166018939Y-90672380D01*
X132538095Y-87470000D02*
X132442857Y-87422380D01*
X132300000Y-87422380D01*
X132157142Y-87470000D01*
X132061904Y-87565238D01*
X132014285Y-87660476D01*
X131966666Y-87850952D01*
X131966666Y-87993809D01*
X132014285Y-88184285D01*
X132061904Y-88279523D01*
X132157142Y-88374761D01*
X132300000Y-88422380D01*
X132395238Y-88422380D01*
X132538095Y-88374761D01*
X132585714Y-88327142D01*
X132585714Y-87993809D01*
X132395238Y-87993809D01*
X133014285Y-88422380D02*
X133014285Y-87422380D01*
X133585714Y-88422380D01*
X133585714Y-87422380D01*
X134061904Y-88422380D02*
X134061904Y-87422380D01*
X134300000Y-87422380D01*
X134442857Y-87470000D01*
X134538095Y-87565238D01*
X134585714Y-87660476D01*
X134633333Y-87850952D01*
X134633333Y-87993809D01*
X134585714Y-88184285D01*
X134538095Y-88279523D01*
X134442857Y-88374761D01*
X134300000Y-88422380D01*
X134061904Y-88422380D01*
%TO.C,C3*%
X136991722Y-79870389D02*
X136991722Y-79937732D01*
X136924378Y-80072419D01*
X136857035Y-80139763D01*
X136722347Y-80207106D01*
X136587660Y-80207106D01*
X136486645Y-80173435D01*
X136318286Y-80072419D01*
X136217271Y-79971404D01*
X136116256Y-79803045D01*
X136082584Y-79702030D01*
X136082584Y-79567343D01*
X136149928Y-79432656D01*
X136217271Y-79365312D01*
X136351958Y-79297969D01*
X136419302Y-79297969D01*
X136587660Y-78994923D02*
X137025393Y-78557190D01*
X137059065Y-79062267D01*
X137160080Y-78961251D01*
X137261096Y-78927580D01*
X137328439Y-78927580D01*
X137429454Y-78961251D01*
X137597813Y-79129610D01*
X137631485Y-79230625D01*
X137631485Y-79297969D01*
X137597813Y-79398984D01*
X137395783Y-79601015D01*
X137294767Y-79634687D01*
X137227424Y-79634687D01*
%TO.C,VCCIO*%
X174261796Y-106852380D02*
X174595130Y-107852380D01*
X174928463Y-106852380D01*
X175833225Y-107757142D02*
X175785606Y-107804761D01*
X175642749Y-107852380D01*
X175547511Y-107852380D01*
X175404654Y-107804761D01*
X175309415Y-107709523D01*
X175261796Y-107614285D01*
X175214177Y-107423809D01*
X175214177Y-107280952D01*
X175261796Y-107090476D01*
X175309415Y-106995238D01*
X175404654Y-106900000D01*
X175547511Y-106852380D01*
X175642749Y-106852380D01*
X175785606Y-106900000D01*
X175833225Y-106947619D01*
X176833225Y-107757142D02*
X176785606Y-107804761D01*
X176642749Y-107852380D01*
X176547511Y-107852380D01*
X176404654Y-107804761D01*
X176309415Y-107709523D01*
X176261796Y-107614285D01*
X176214177Y-107423809D01*
X176214177Y-107280952D01*
X176261796Y-107090476D01*
X176309415Y-106995238D01*
X176404654Y-106900000D01*
X176547511Y-106852380D01*
X176642749Y-106852380D01*
X176785606Y-106900000D01*
X176833225Y-106947619D01*
X177261796Y-107852380D02*
X177261796Y-106852380D01*
X177928463Y-106852380D02*
X178118939Y-106852380D01*
X178214177Y-106900000D01*
X178309415Y-106995238D01*
X178357035Y-107185714D01*
X178357035Y-107519047D01*
X178309415Y-107709523D01*
X178214177Y-107804761D01*
X178118939Y-107852380D01*
X177928463Y-107852380D01*
X177833225Y-107804761D01*
X177737987Y-107709523D01*
X177690368Y-107519047D01*
X177690368Y-107185714D01*
X177737987Y-106995238D01*
X177833225Y-106900000D01*
X177928463Y-106852380D01*
D13*
%TO.C,GPIO1*%
X153466558Y-81800000D02*
X153428463Y-81780952D01*
X153371320Y-81780952D01*
X153314177Y-81800000D01*
X153276082Y-81838095D01*
X153257035Y-81876190D01*
X153237987Y-81952380D01*
X153237987Y-82009523D01*
X153257035Y-82085714D01*
X153276082Y-82123809D01*
X153314177Y-82161904D01*
X153371320Y-82180952D01*
X153409415Y-82180952D01*
X153466558Y-82161904D01*
X153485606Y-82142857D01*
X153485606Y-82009523D01*
X153409415Y-82009523D01*
X153657035Y-82180952D02*
X153657035Y-81780952D01*
X153809415Y-81780952D01*
X153847511Y-81800000D01*
X153866558Y-81819047D01*
X153885606Y-81857142D01*
X153885606Y-81914285D01*
X153866558Y-81952380D01*
X153847511Y-81971428D01*
X153809415Y-81990476D01*
X153657035Y-81990476D01*
X154057035Y-82180952D02*
X154057035Y-81780952D01*
X154323701Y-81780952D02*
X154399892Y-81780952D01*
X154437987Y-81800000D01*
X154476082Y-81838095D01*
X154495130Y-81914285D01*
X154495130Y-82047619D01*
X154476082Y-82123809D01*
X154437987Y-82161904D01*
X154399892Y-82180952D01*
X154323701Y-82180952D01*
X154285606Y-82161904D01*
X154247511Y-82123809D01*
X154228463Y-82047619D01*
X154228463Y-81914285D01*
X154247511Y-81838095D01*
X154285606Y-81800000D01*
X154323701Y-81780952D01*
X154876082Y-82180952D02*
X154647511Y-82180952D01*
X154761796Y-82180952D02*
X154761796Y-81780952D01*
X154723701Y-81838095D01*
X154685606Y-81876190D01*
X154647511Y-81895238D01*
D14*
%TO.C,J1*%
X144800000Y-71775000D02*
X131700000Y-71775000D01*
X131700000Y-71775000D02*
X131700000Y-67975000D01*
X131700000Y-67975000D02*
X144800000Y-67975000D01*
X144800000Y-67975000D02*
X144800000Y-71775000D01*
%TO.C,C2*%
X140415010Y-78204457D02*
X140045543Y-77834990D01*
X141454457Y-77165010D02*
X141084990Y-76795543D01*
%TO.C,C11*%
X158181419Y-87750885D02*
X158550886Y-87381418D01*
X159220866Y-88790332D02*
X159590333Y-88420865D01*
%TO.C,C10*%
X169768287Y-107535000D02*
X169245783Y-107535000D01*
X169768287Y-106065000D02*
X169245783Y-106065000D01*
%TO.C,C8*%
X150022035Y-97511252D02*
X150022035Y-96988748D01*
X151492035Y-97511252D02*
X151492035Y-96988748D01*
%TO.C,J3*%
X174630000Y-100395000D02*
X126310000Y-100395000D01*
X174630000Y-102995000D02*
X177230000Y-102995000D01*
X175900000Y-100395000D02*
X177230000Y-100395000D01*
X177230000Y-102995000D02*
X177230000Y-105595000D01*
X126310000Y-100395000D02*
X126310000Y-105595000D01*
X174630000Y-100395000D02*
X174630000Y-102995000D01*
X177230000Y-105595000D02*
X126310000Y-105595000D01*
X177230000Y-100395000D02*
X177230000Y-101725000D01*
%TO.C,C6*%
X152904457Y-73765010D02*
X152534990Y-73395543D01*
X151865010Y-74804457D02*
X151495543Y-74434990D01*
%TO.C,C13*%
X142034990Y-89904457D02*
X142404457Y-89534990D01*
X140995543Y-88865010D02*
X141365010Y-88495543D01*
%TO.C,GND*%
X169730000Y-85270000D02*
X169730000Y-85330000D01*
X167070000Y-85270000D02*
X167070000Y-85330000D01*
X167070000Y-82670000D02*
X168400000Y-82670000D01*
X167070000Y-85330000D02*
X169730000Y-85330000D01*
X167070000Y-85270000D02*
X169730000Y-85270000D01*
X167070000Y-84000000D02*
X167070000Y-82670000D01*
%TO.C,GPIO0*%
X156657035Y-80500000D02*
G75*
G03*
X156657035Y-80500000I-700000J0D01*
G01*
%TO.C,R2*%
X158792471Y-83985000D02*
X159246599Y-83985000D01*
X158792471Y-82515000D02*
X159246599Y-82515000D01*
%TO.C,C5*%
X154723792Y-77663239D02*
X155093259Y-78032706D01*
X155763239Y-76623792D02*
X156132706Y-76993259D01*
%TO.C,C4*%
X163306741Y-80032706D02*
X163676208Y-79663239D01*
X162267294Y-78993259D02*
X162636761Y-78623792D01*
%TO.C,C14*%
X160849115Y-90362083D02*
X161218582Y-89992616D01*
X159809668Y-89322636D02*
X160179135Y-88953169D01*
%TO.C,GND*%
X147770000Y-77670000D02*
X150430000Y-77670000D01*
X150430000Y-77670000D02*
X150430000Y-77730000D01*
X147770000Y-77730000D02*
X150430000Y-77730000D01*
X147770000Y-77670000D02*
X147770000Y-77730000D01*
X147770000Y-75070000D02*
X149100000Y-75070000D01*
X147770000Y-76400000D02*
X147770000Y-75070000D01*
%TO.C,R3*%
X152859165Y-80080282D02*
X153180282Y-79759165D01*
X151819718Y-79040835D02*
X152140835Y-78719718D01*
%TO.C,RESET*%
X176412491Y-92098097D02*
X177473152Y-91037437D01*
X170578860Y-89800000D02*
X173760841Y-92981981D01*
X172523404Y-86087689D02*
X171462744Y-87148350D01*
X178357035Y-88385787D02*
X175175055Y-85203806D01*
%TO.C,C7*%
X139395543Y-87134990D02*
X139765010Y-87504457D01*
X140434990Y-86095543D02*
X140804457Y-86465010D01*
%TO.C,J4*%
X177230000Y-109285000D02*
X177230000Y-110615000D01*
X177230000Y-114485000D02*
X126310000Y-114485000D01*
X174630000Y-111885000D02*
X177230000Y-111885000D01*
X174630000Y-109285000D02*
X126310000Y-109285000D01*
X126310000Y-109285000D02*
X126310000Y-114485000D01*
X177230000Y-111885000D02*
X177230000Y-114485000D01*
X174630000Y-109285000D02*
X174630000Y-111885000D01*
X175900000Y-109285000D02*
X177230000Y-109285000D01*
%TO.C,Y1*%
X160034493Y-80040738D02*
X163640738Y-76434493D01*
X151124948Y-71131192D02*
X160034493Y-80040738D01*
X163640738Y-76434493D02*
X154731192Y-67524948D01*
%TO.C,C9*%
X145431418Y-82470866D02*
X145800885Y-82840333D01*
X146470865Y-81431419D02*
X146840332Y-81800886D01*
%TO.C,JP2*%
X165550000Y-108400000D02*
X164150000Y-108400000D01*
X163450000Y-107700000D02*
X163450000Y-107100000D01*
X166250000Y-107100000D02*
X166250000Y-107700000D01*
X164150000Y-106400000D02*
X165550000Y-106400000D01*
X163450000Y-107700000D02*
G75*
G03*
X164150000Y-108400000I700000J0D01*
G01*
X166250000Y-107100000D02*
G75*
G03*
X165550000Y-106400000I-699999J1D01*
G01*
X165550000Y-108400000D02*
G75*
G03*
X166250000Y-107700000I1J699999D01*
G01*
X164150000Y-106400000D02*
G75*
G03*
X163450000Y-107100000I0J-700000D01*
G01*
%TO.C,G\u002A\u002A\u002A*%
G36*
X163594671Y-95200419D02*
G01*
X164017694Y-95297861D01*
X164324729Y-95485775D01*
X164507294Y-95755608D01*
X164556908Y-96098806D01*
X164551344Y-96165291D01*
X164522103Y-96301607D01*
X164445780Y-96371723D01*
X164278208Y-96403152D01*
X164154573Y-96412436D01*
X163928867Y-96418976D01*
X163818697Y-96391239D01*
X163784623Y-96315286D01*
X163783342Y-96281249D01*
X163716790Y-96065245D01*
X163518562Y-95931378D01*
X163190801Y-95881008D01*
X163152529Y-95880615D01*
X162819995Y-95927095D01*
X162583077Y-96056667D01*
X162464260Y-96254531D01*
X162454727Y-96339969D01*
X162487095Y-96478948D01*
X162600460Y-96592956D01*
X162819214Y-96697988D01*
X163167749Y-96810040D01*
X163174555Y-96811989D01*
X163659766Y-96971414D01*
X163995344Y-97128968D01*
X164178435Y-97283216D01*
X164203718Y-97329963D01*
X164260389Y-97668981D01*
X164208202Y-98052803D01*
X164056127Y-98423528D01*
X164026802Y-98471993D01*
X163705771Y-98837393D01*
X163284528Y-99088849D01*
X162776395Y-99219851D01*
X162458920Y-99238171D01*
X162148287Y-99220108D01*
X161864537Y-99176366D01*
X161702754Y-99128930D01*
X161411982Y-98930613D01*
X161247246Y-98641468D01*
X161204265Y-98325072D01*
X161204265Y-97990769D01*
X161595035Y-97990769D01*
X161831228Y-97999896D01*
X161948857Y-98036415D01*
X161985064Y-98114030D01*
X161985804Y-98134964D01*
X162055770Y-98338609D01*
X162257693Y-98474322D01*
X162579608Y-98535152D01*
X162679356Y-98537846D01*
X162955591Y-98521000D01*
X163141046Y-98456984D01*
X163278895Y-98346014D01*
X163430070Y-98150950D01*
X163455703Y-97982588D01*
X163348499Y-97831632D01*
X163101159Y-97688787D01*
X162706387Y-97544757D01*
X162631978Y-97521863D01*
X162177906Y-97359349D01*
X161867036Y-97181183D01*
X161686262Y-96971209D01*
X161622478Y-96713266D01*
X161662580Y-96391199D01*
X161675170Y-96342181D01*
X161862073Y-95933057D01*
X162168326Y-95599240D01*
X162569193Y-95355443D01*
X163039936Y-95216381D01*
X163555819Y-95196766D01*
X163594671Y-95200419D01*
G37*
G36*
X172078586Y-94737950D02*
G01*
X172299119Y-94902753D01*
X172444037Y-95150696D01*
X172481414Y-95364506D01*
X172420173Y-95671491D01*
X172237782Y-95908919D01*
X171964434Y-96046306D01*
X171784415Y-96068184D01*
X171556732Y-96036429D01*
X171377240Y-95916141D01*
X171288130Y-95818092D01*
X171165829Y-95684609D01*
X171046871Y-95609633D01*
X170881592Y-95576397D01*
X170620330Y-95568132D01*
X170547433Y-95568000D01*
X170015522Y-95568000D01*
X169322202Y-96246451D01*
X169057432Y-96510420D01*
X168839301Y-96737182D01*
X168689363Y-96903653D01*
X168629176Y-96986749D01*
X168628881Y-96988912D01*
X168704310Y-97002707D01*
X168919705Y-97015482D01*
X169258725Y-97026910D01*
X169705029Y-97036664D01*
X170242276Y-97044420D01*
X170854126Y-97049849D01*
X171524238Y-97052625D01*
X171833188Y-97052923D01*
X175037496Y-97052923D01*
X175037496Y-96772872D01*
X175052048Y-96597233D01*
X175088020Y-96518356D01*
X175097810Y-96518872D01*
X175233420Y-96586592D01*
X175442631Y-96700859D01*
X175689949Y-96841036D01*
X175939880Y-96986487D01*
X176156931Y-97116576D01*
X176305606Y-97210665D01*
X176351439Y-97247741D01*
X176269487Y-97301580D01*
X176092715Y-97408374D01*
X175857966Y-97546757D01*
X175602083Y-97695364D01*
X175361910Y-97832831D01*
X175174289Y-97937791D01*
X175076063Y-97988880D01*
X175070115Y-97990769D01*
X175048541Y-97921959D01*
X175037773Y-97752796D01*
X175037496Y-97717231D01*
X175037496Y-97443692D01*
X172653804Y-97443692D01*
X172061849Y-97445535D01*
X171523981Y-97450753D01*
X171059062Y-97458881D01*
X170685954Y-97469454D01*
X170423520Y-97482006D01*
X170290622Y-97496073D01*
X170277968Y-97502307D01*
X170335231Y-97575138D01*
X170485488Y-97730524D01*
X170706097Y-97945851D01*
X170974417Y-98198503D01*
X170982179Y-98205692D01*
X171678532Y-98850461D01*
X172771035Y-98850461D01*
X172771035Y-98381538D01*
X174183889Y-98381538D01*
X174161308Y-99065384D01*
X174138727Y-99749231D01*
X172771035Y-99794393D01*
X172771035Y-99319384D01*
X172218820Y-99319384D01*
X171915484Y-99307169D01*
X171654848Y-99275178D01*
X171495897Y-99231288D01*
X171373095Y-99143335D01*
X171168736Y-98971131D01*
X170912332Y-98740404D01*
X170660881Y-98503412D01*
X170284731Y-98142041D01*
X169994052Y-97873802D01*
X169760372Y-97684830D01*
X169555216Y-97561260D01*
X169350113Y-97489226D01*
X169116588Y-97454862D01*
X168826169Y-97444302D01*
X168484734Y-97443692D01*
X167534727Y-97443692D01*
X167534727Y-97720344D01*
X167461353Y-98144036D01*
X167255202Y-98522234D01*
X166937229Y-98837700D01*
X166528389Y-99073199D01*
X166049637Y-99211492D01*
X165685775Y-99241231D01*
X165204821Y-99192462D01*
X164836884Y-99049278D01*
X164588515Y-98816362D01*
X164466268Y-98498395D01*
X164454335Y-98361181D01*
X164447650Y-98029846D01*
X164837349Y-98029846D01*
X165075831Y-98039663D01*
X165199652Y-98079356D01*
X165249786Y-98164286D01*
X165254250Y-98186154D01*
X165348016Y-98381624D01*
X165555358Y-98496425D01*
X165889658Y-98537522D01*
X165930121Y-98537846D01*
X166308703Y-98492579D01*
X166567371Y-98359125D01*
X166698571Y-98143667D01*
X166686233Y-97963057D01*
X166542945Y-97800883D01*
X166259965Y-97650491D01*
X165878671Y-97519729D01*
X165575825Y-97423075D01*
X165313199Y-97325693D01*
X165143820Y-97247384D01*
X165135148Y-97242068D01*
X164974843Y-97053401D01*
X164906313Y-96774390D01*
X164927831Y-96439945D01*
X165037664Y-96084978D01*
X165207541Y-95781153D01*
X165459041Y-95541199D01*
X165818315Y-95351953D01*
X166241220Y-95227327D01*
X166683617Y-95181233D01*
X167020146Y-95209916D01*
X167348591Y-95332624D01*
X167610543Y-95545993D01*
X167781289Y-95816818D01*
X167836116Y-96111892D01*
X167808823Y-96269628D01*
X167743962Y-96372084D01*
X167605866Y-96418624D01*
X167412230Y-96427692D01*
X167192496Y-96416076D01*
X167089798Y-96370616D01*
X167065804Y-96283497D01*
X166998003Y-96093368D01*
X166821341Y-95957527D01*
X166575931Y-95882943D01*
X166301884Y-95876584D01*
X166039313Y-95945417D01*
X165850867Y-96072447D01*
X165721300Y-96222126D01*
X165659822Y-96332714D01*
X165659035Y-96340403D01*
X165718228Y-96473249D01*
X165903018Y-96605937D01*
X166224217Y-96744644D01*
X166564035Y-96857221D01*
X166963630Y-96970843D01*
X167284035Y-97031070D01*
X167555352Y-97028009D01*
X167807683Y-96951767D01*
X168071127Y-96792450D01*
X168375787Y-96540165D01*
X168751764Y-96185020D01*
X168824265Y-96114361D01*
X169135620Y-95815227D01*
X169420147Y-95551088D01*
X169653755Y-95343630D01*
X169812354Y-95214539D01*
X169854666Y-95186828D01*
X170017400Y-95142529D01*
X170279382Y-95110986D01*
X170581338Y-95099077D01*
X170880060Y-95093583D01*
X171069126Y-95068230D01*
X171195052Y-95009708D01*
X171304351Y-94904707D01*
X171318809Y-94888061D01*
X171552880Y-94716035D01*
X171817989Y-94670854D01*
X172078586Y-94737950D01*
G37*
%TO.C,C1*%
X140693259Y-85632706D02*
X140323792Y-85263239D01*
X141732706Y-84593259D02*
X141363239Y-84223792D01*
%TO.C,U2*%
X144440095Y-87060661D02*
X143980475Y-87520280D01*
X150040381Y-81460375D02*
X150500000Y-81000755D01*
X143980475Y-87520280D02*
X144440095Y-87979899D01*
X156559905Y-87979899D02*
X157019525Y-87520280D01*
X150500000Y-94039805D02*
X150040381Y-93580185D01*
X150959619Y-93580185D02*
X150500000Y-94039805D01*
X150500000Y-81000755D02*
X150959619Y-81460375D01*
%TO.C,R1*%
X164804400Y-81435047D02*
X165125517Y-81113930D01*
X163764953Y-80395600D02*
X164086070Y-80074483D01*
%TO.C,C12*%
X142923792Y-80063239D02*
X143293259Y-80432706D01*
X143963239Y-79023792D02*
X144332706Y-79393259D01*
%TO.C,~{WAKEUP}*%
X158832035Y-80275000D02*
G75*
G03*
X158832035Y-80275000I-700000J0D01*
G01*
%TO.C,GND*%
X163927035Y-93880000D02*
X166587035Y-93880000D01*
X163927035Y-92550000D02*
X163927035Y-91220000D01*
X163927035Y-93820000D02*
X163927035Y-93880000D01*
X163927035Y-91220000D02*
X165257035Y-91220000D01*
X166587035Y-93820000D02*
X166587035Y-93880000D01*
X163927035Y-93820000D02*
X166587035Y-93820000D01*
X131970000Y-91630000D02*
X134630000Y-91630000D01*
X131970000Y-88970000D02*
X133300000Y-88970000D01*
X131970000Y-90300000D02*
X131970000Y-88970000D01*
X134630000Y-91570000D02*
X134630000Y-91630000D01*
X131970000Y-91570000D02*
X131970000Y-91630000D01*
X131970000Y-91570000D02*
X134630000Y-91570000D01*
%TO.C,C3*%
X138915010Y-79626208D02*
X138545543Y-79256741D01*
X139954457Y-78586761D02*
X139584990Y-78217294D01*
%TO.C,VCCIO*%
X173850000Y-107400000D02*
G75*
G03*
X173850000Y-107400000I-950000J0D01*
G01*
%TO.C,GPIO1*%
X154657035Y-80800000D02*
G75*
G03*
X154657035Y-80800000I-700000J0D01*
G01*
%TD*%
M02*
